<?xml version="1.0" encoding="utf-8"?>
<!-- Generator: Adobe Illustrator 20.1.0, SVG Export Plug-In . SVG Version: 6.00 Build 0)  -->
<svg version="1.1" id="main" xmlns="http://www.w3.org/2000/svg" xmlns:xlink="http://www.w3.org/1999/xlink" x="0px" y="0px"
	 width="128" height="128" viewBox="0 0 128 128" style="enable-background:new 0 0 128 128;" xml:space="preserve">
<path class="st0" d="M99.8,50.1c-4.2-10.4-10.9-17.7-20.1-21.7c-9.6-4.3-20.2-4.5-29.9-0.6c-5.4,2.1-10.9,6.1-15.1,10.6l-0.3-3.2
	c-0.2-1.3-0.9-2.4-2-3.1c-1-0.6-2.2-0.9-3.5-0.6l-0.3,0.1c-2.2,0.9-3.5,3.2-3.1,5.5l3.1,13c0.4,2.2,2.3,4,4.6,4h0.6L48,52h0.1
	c2.4-1,3.9-2.8,3.9-5.3v-0.1c-1-2.4-2.5-3.8-5.5-3.7l-3.4,0.3c3.2-3.1,6.8-5.5,10.1-6.8c7.4-2.9,15.3-2.7,22.8,0.6
	c7.3,3.3,12.9,9.1,15.8,16.4c2.9,7.4,2.7,15.3-0.6,22.9C87.9,83.6,82.3,89,74.8,92c-10.6,3.9-22.2,1.9-30.3-5.3
	c-3.9-3.6-6.7-7.5-8.4-11.6c-1-2.4-3.7-3.6-6-2.7c-1.1,0.4-2,1.3-2.6,2.4c-0.5,1.2-0.6,2.5-0.2,3.6c2.3,5.8,6.2,11.3,10.7,15.3
	c7,6.1,16.1,9.4,25.6,9.4c4.5,0,9.1-0.8,14-2.6c9.8-3.9,17.2-11,21.4-20.4C103.5,70.4,103.7,59.8,99.8,50.1z"/>
<path class="st0" d="M78.9,74.2c-0.2-1.1-0.8-2.1-1.7-2.8L68,64.6v-14c0-2.4-1.6-4.2-4-4.2s-4,1.8-4,4.2v16.1c0,1.4,0.5,2.7,1.6,3.4
	l10.8,8.1l0.2,0.1c0.6,0.3,1.4,0.7,2.3,0.7c1.4,0,2.7-0.6,3.4-1.7C78.8,76.5,79.1,75.4,78.9,74.2z"/>
</svg>
